# xmcd CD database file
#
# Track frame offsets:
#	150
#	17420
#	37790
#	58937
#	73330
#	87865
#	89307
#	106225
#	125262
#	139177
#	152237
#
# Disc length: 2226 seconds
#
# Revision: 0
# Processed by: cddbd v1.5.2PL0 Copyright (c) Steve Scherf et al.
# Submitted via: CDex 1.70beta2
#
DISCID=8b08b00b
DTITLE=Spur 503 - I'm Ready
DYEAR=2005
DGENRE=Country
TTITLE0=That's Whats Wrong With Me
TTITLE1=It Might Be The Whiskey
TTITLE2=Back To Austin
TTITLE3=Into You
TTITLE4=I'm Gonna Feel That In The Morning
TTITLE5=Intro To Cowboy Blues
TTITLE6=Cowboy Blues
TTITLE7=I Don't Know Where I'm At
TTITLE8=The Mama Song
TTITLE9=Waiting On You
TTITLE10=I'm Ready
EXTD=YEAR: 2005
EXTT0=
EXTT1=
EXTT2=
EXTT3=
EXTT4=
EXTT5=
EXTT6=
EXTT7=
EXTT8=
EXTT9=
EXTT10=
PLAYORDER=
